<?xml version="1.0"?>
<svg xmlns="http://www.w3.org/2000/svg" width="512" height="512" viewBox="0 0 128 128"><g><path d="M121.25,5H6.75A6.758,6.758,0,0,0,0,11.754v71.5a6.758,6.758,0,0,0,6.75,6.75H44.79L36.412,108H30.623a7.5,7.5,0,0,0,0,15H97.376a7.5,7.5,0,1,0,0-15H91.588L83.21,90.007h38.04a6.758,6.758,0,0,0,6.75-6.75v-71.5A6.758,6.758,0,0,0,121.25,5ZM3.5,11.754A3.254,3.254,0,0,1,6.75,8.5h114.5a3.254,3.254,0,0,1,3.25,3.25V68.872H118V16.754A1.751,1.751,0,0,0,116.25,15H11.75A1.751,1.751,0,0,0,10,16.754V68.872H3.5Zm111,57.118H13.5V18.5h101ZM101.375,115.5a4,4,0,0,1-4,4H30.623a4,4,0,0,1,0-8H97.376A4,4,0,0,1,101.375,115.5ZM87.727,108H40.272l8.379-17.992h30.7ZM124.5,83.257a3.254,3.254,0,0,1-3.25,3.25H6.75a3.254,3.254,0,0,1-3.25-3.25V72.372h121Z"/><path d="M71.875,77.69H56.125a1.75,1.75,0,0,0,0,3.5h15.75a1.75,1.75,0,0,0,0-3.5Z"/></g></svg>
