<svg height="512" viewBox="0 0 512 512" width="512" xmlns="http://www.w3.org/2000/svg"><g id="outline"><path d="m84 384a12.013 12.013 0 0 0 -12 12v86a14.015 14.015 0 0 0 14 14h244a14.015 14.015 0 0 0 14-14v-86a12.013 12.013 0 0 0 -12-12zm244 96h-240v-80h240z"/><path d="m168 448h80v16h-80z"/><path d="m104 416h16v16h-16z"/><path d="m136 416h16v16h-16z"/><path d="m168 416h16v16h-16z"/><path d="m200 416h16v16h-16z"/><path d="m232 416h16v16h-16z"/><path d="m264 416h16v16h-16z"/><path d="m296 416h16v16h-16z"/><path d="m264 448h16v16h-16z"/><path d="m296 448h16v16h-16z"/><path d="m104 448h16v16h-16z"/><path d="m136 448h16v16h-16z"/><path d="m56 50v220a34.038 34.038 0 0 0 34 34h106.457l-19.947 53.191a8 8 0 0 0 7.49 10.809h144a8 8 0 0 0 7.49-10.809l-19.947-53.191h106.457a34.038 34.038 0 0 0 34-34v-220a34.038 34.038 0 0 0 -34-34h-332a34.038 34.038 0 0 0 -34 34zm260.456 302h-120.912l18-48h10.456a32 32 0 0 0 64 0h10.456zm-76.456-48h32a16 16 0 0 1 -32 0zm200-34a18.021 18.021 0 0 1 -18 18h-332a18.021 18.021 0 0 1 -18-18v-14h368zm0-220v190h-368v-190a18.021 18.021 0 0 1 18-18h332a18.021 18.021 0 0 1 18 18z"/><path d="m360 432v16a40 40 0 0 0 80 0v-16a40 40 0 0 0 -80 0zm64 0v16a24 24 0 0 1 -48 0v-16a24 24 0 0 1 48 0z"/><path d="m392 424h16v24h-16z"/></g></svg>