<?xml version="1.0" standalone="no"?>
<!DOCTYPE svg PUBLIC "-//W3C//DTD SVG 1.1//EN" "http://www.w3.org/Graphics/SVG/1.1/DTD/svg11.dtd" >
<svg xmlns="http://www.w3.org/2000/svg">
<metadata>Generated by IcoMoon</metadata>
<defs>
<font id="icomoon" horiz-adv-x="1024">
<font-face units-per-em="1024" ascent="960" descent="-64" />
<missing-glyph horiz-adv-x="1024" />
<glyph unicode="&#x20;" horiz-adv-x="512" d="" />
<glyph unicode="&#xe900;" glyph-name="accept" d="M386.446-48.13c9.695-10.217 22.591-15.847 36.349-15.847 14.553 0 28.38 6.516 37.961 17.959 185.152 221.024 434.466 496.743 527.825 546.306 20.57 10.943 34.397 33.057 34.397 55.012v360.813c-0.023 28.494-20.888 43.887-40.527 43.887-7.129 0-18.050-1.953-29.129-11.216-69.633-58.032-404.36-347.395-515.792-634.897l-106.505 173.096c-14.304 23.158-47.406 31.468-70.882 17.777l-235.124-136.769c-13.6-7.924-22.273-20.979-23.748-35.85-1.476-14.848 4.405-29.379 16.211-39.846 48.564-43.138 294.631-262.073 368.964-340.425zM281.031 438.169l127.96-207.969c8.582-13.918 21.796-21.909 36.258-21.909 13.918 0 32.626 8.514 39.414 32.512 70.178 247.497 350.619 514.497 470.134 619.595v-300.897c-124.010-67.658-424.112-416.575-533.138-546.124-77.852 78.579-256.125 238.37-337.156 310.456l196.527 114.338z" />
<glyph unicode="&#xe901;" glyph-name="aim" d="M993.976 478.058h-68.092c-13.536 206.036-178.16 371.466-383.858 386.25v65.668c-0.002 16.582-13.444 30.024-30.026 30.024s-30.024-13.442-30.024-30.024v-65.666c-205.698-14.784-370.32-180.218-383.858-386.25h-68.094c-16.582-0.002-30.024-13.444-30.024-30.026s13.442-30.024 30.024-30.024h68.438c15.846-202.992 178.448-365.43 381.512-381.008v-70.978c0-16.582 13.442-30.024 30.024-30.024s30.024 13.442 30.024 30.024v70.716c204.924 13.74 369.568 176.944 385.516 381.266h68.438c16.582 0 30.024 13.442 30.024 30.024 0 16.584-13.442 30.028-30.024 30.028zM738.382 418.010h126.874c-15.662-171.188-153.436-307.594-325.234-321.082v122.688c0 16.582-13.442 30.024-30.024 30.024s-30.024-13.442-30.024-30.024v-122.332c-169.928 15.278-305.69 150.872-321.228 320.724h126.874c16.582 0 30.024 13.442 30.024 30.024s-13.442 30.024-30.024 30.024h-127.33c13.302 172.912 151.118 311.482 323.686 326.014v-131.694c0-16.582 13.442-30.024 30.024-30.024s30.024 13.442 30.024 30.024v131.696c172.568-14.532 310.384-153.104 323.686-326.014h-127.328c-16.582 0-30.024-13.442-30.024-30.024s13.442-30.024 30.024-30.024zM509.998 609.174c-89.532 0-162.37-72.838-162.37-162.37s72.838-162.37 162.37-162.37c89.532 0 162.37 72.838 162.37 162.37 0.002 89.532-72.838 162.37-162.37 162.37zM509.998 344.48c-56.422 0-102.322 45.902-102.322 102.322s45.902 102.322 102.322 102.322 102.322-45.902 102.322-102.322c0-56.418-45.902-102.322-102.322-102.322zM539.868 449.76c-0.1 0.958-0.24 1.942-0.44 2.902-0.18 0.96-0.42 1.922-0.72 2.862-0.28 0.94-0.62 1.862-0.98 2.762-0.38 0.9-0.8 1.802-1.262 2.662-0.46 0.86-0.96 1.702-1.502 2.522s-1.14 1.622-1.762 2.362c-0.62 0.78-1.282 1.502-1.982 2.202-0.68 0.7-1.422 1.36-2.182 1.982-0.76 0.62-1.562 1.2-2.382 1.742-0.8 0.54-1.662 1.060-2.522 1.522s-1.762 0.88-2.662 1.24c-0.9 0.38-1.822 0.72-2.762 1s-1.902 0.52-2.842 0.72c-0.96 0.2-1.942 0.34-2.922 0.44-1.962 0.2-3.944 0.2-5.904 0-0.96-0.1-1.942-0.24-2.902-0.44s-1.922-0.44-2.862-0.72c-0.94-0.28-1.862-0.62-2.762-1-0.9-0.36-1.802-0.78-2.662-1.24s-1.702-0.98-2.522-1.522-1.622-1.12-2.362-1.742c-0.76-0.62-1.502-1.282-2.202-1.982s-1.362-1.422-1.982-2.202c-0.62-0.74-1.2-1.542-1.742-2.362-0.54-0.82-1.060-1.662-1.522-2.522-0.46-0.86-0.88-1.762-1.24-2.662-0.38-0.9-0.72-1.822-1-2.762s-0.52-1.902-0.72-2.862c-0.2-0.96-0.34-1.942-0.44-2.902-0.1-0.98-0.14-1.982-0.14-2.962s0.040-1.962 0.14-2.942c0.1-0.98 0.24-1.962 0.44-2.922s0.44-1.902 0.72-2.842c0.28-0.94 0.62-1.862 1-2.762 0.36-0.9 0.78-1.802 1.24-2.662s0.98-1.722 1.522-2.522c0.54-0.82 1.12-1.622 1.742-2.382s1.282-1.502 1.982-2.182c0.7-0.7 1.442-1.362 2.202-1.982 0.74-0.62 1.542-1.22 2.362-1.762 0.82-0.54 1.662-1.040 2.522-1.502 0.86-0.46 1.762-0.88 2.662-1.262 0.9-0.38 1.822-0.7 2.762-0.98 0.94-0.3 1.902-0.54 2.862-0.72 0.96-0.2 1.942-0.34 2.902-0.44 0.98-0.1 1.982-0.16 2.962-0.16s1.962 0.060 2.942 0.16c0.98 0.1 1.962 0.24 2.922 0.44 0.94 0.18 1.902 0.42 2.842 0.72 0.94 0.28 1.862 0.6 2.762 0.98s1.802 0.8 2.662 1.262c0.86 0.46 1.722 0.96 2.522 1.502 0.82 0.54 1.622 1.14 2.382 1.762s1.502 1.282 2.182 1.982c0.7 0.68 1.362 1.422 1.982 2.182s1.22 1.562 1.762 2.382c0.54 0.8 1.040 1.662 1.502 2.522 0.46 0.86 0.88 1.762 1.262 2.662 0.36 0.9 0.7 1.822 0.98 2.762 0.3 0.94 0.54 1.882 0.72 2.842 0.2 0.96 0.34 1.942 0.44 2.922s0.16 1.962 0.16 2.942c0 0.98-0.060 1.98-0.16 2.962z" />
<glyph unicode="&#xe902;" glyph-name="check" d="M854.661 405.521c-2.459 1.24-4.922 1.859-7.404 1.859-5.344 0-10.052-2.051-14.154-6.162l-39.411-39.405c-3.684-3.699-5.534-8.208-5.534-13.551v-156.388c0-27.099-9.625-50.281-28.932-69.584-19.292-19.292-42.489-28.939-69.584-28.939h-512.305c-27.097 0-50.292 9.647-69.584 28.939-19.296 19.3-28.939 42.483-28.939 69.584v512.294c0 27.092 9.643 50.285 28.939 69.584 19.292 19.294 42.487 28.939 69.584 28.939h512.309c9.032 0 18.267-1.231 27.707-3.697 2.465-0.815 4.311-1.231 5.528-1.231 5.344 0 10.067 2.047 14.169 6.151l30.172 30.172c4.922 4.919 6.776 10.876 5.534 17.849-1.231 6.569-4.93 11.292-11.088 14.163-22.154 10.249-46.179 15.397-72.040 15.397h-512.292c-48.849 0-90.62-17.344-125.308-52.032-34.684-34.693-52.028-76.457-52.028-125.308v-512.307c0-48.843 17.344-90.611 52.030-125.3 34.688-34.697 76.459-52.041 125.308-52.041h512.303c48.843 0 90.618 17.344 125.306 52.041 34.69 34.688 52.050 76.455 52.050 125.3v195.821c-0.004 8.614-4.13 14.562-12.336 17.853zM1009.224 758.962l-67.74 67.74c-9.852 9.85-21.558 14.776-35.109 14.776-13.533 0-25.248-4.926-35.092-14.776l-398.397-398.395-161.933 161.944c-9.854 9.856-21.556 14.776-35.098 14.776-13.544 0-25.242-4.919-35.098-14.776l-67.731-67.731c-9.852-9.852-14.782-21.554-14.782-35.104 0-13.544 4.93-25.242 14.782-35.098l264.771-264.771c9.854-9.858 21.556-14.776 35.098-14.776s25.242 4.915 35.098 14.776l501.224 501.222c9.845 9.85 14.782 21.554 14.782 35.098s-4.924 25.246-14.776 35.096z" />
<glyph unicode="&#xe903;" glyph-name="clock" d="M512 960c-282.317 0-512-229.683-512-512s229.683-512 512-512 512 229.683 512 512-229.683 512-512 512zM512-24c-260.261 0-472 211.739-472 472s211.739 472 472 472 472-211.739 472-472-211.739-472-472-472zM512 840c-216.149 0-392-175.851-392-392s175.851-392 392-392 392 175.851 392 392-175.851 392-392 392zM532 96.579v39.418c0 11.046-8.954 20-20 20s-20-8.954-20-20v-39.418c-178.201 10.032-321.389 153.219-331.421 331.421h39.42c11.046 0 20 8.954 20 20s-8.954 20-20 20h-39.42c10.032 178.201 153.219 321.387 331.421 331.419v-39.418c0-11.046 8.954-20 20-20s20 8.954 20 20v39.418c178.201-10.032 321.389-153.217 331.421-331.419h-39.42c-11.046 0-20-8.954-20-20s8.954-20 20-20h39.42c-10.032-178.201-153.219-321.389-331.421-331.421zM338.389 708.719c3.612-6.708 10.5-10.516 17.62-10.516 3.202 0 6.452 0.772 9.468 2.396 9.726 5.238 13.362 17.374 8.124 27.098-5.236 9.724-17.364 13.362-27.092 8.126-9.724-5.236-13.364-17.366-8.126-27.092zM232.303 586.397l0.012-0.006c3.016-1.624 6.26-2.394 9.46-2.394 7.12 0 14.012 3.814 17.626 10.524 5.236 9.726 1.592 21.858-8.134 27.094-9.724 5.234-21.854 1.598-27.092-8.126-5.236-9.726-1.596-21.856 8.128-27.092zM232.303 309.601c-9.724-5.236-13.364-17.366-8.126-27.092 3.612-6.708 10.506-10.522 17.626-10.522 3.202 0 6.448 0.77 9.464 2.394l0.012 0.006c9.724 5.236 13.358 17.362 8.122 27.088-5.234 9.728-17.37 13.362-27.098 8.126zM365.477 195.401c-9.724 5.236-21.858 1.59-27.094-8.134-5.238-9.726-1.598-21.856 8.126-27.092 3.016-1.624 6.262-2.394 9.464-2.394 7.12 0 14.014 3.814 17.626 10.522l0.006 0.012c5.24 9.726 1.598 21.85-8.128 27.086zM685.033 188.281c-5.79 9.408-18.102 12.334-27.512 6.544-9.408-5.79-12.336-18.116-6.546-27.522 3.778-6.138 10.336-9.52 17.052-9.52 3.576 0 7.196 0.958 10.464 2.97 9.408 5.79 12.34 18.108 6.55 27.516zM791.697 309.601l-0.012 0.006c-9.724 5.236-21.848 1.594-27.086-8.13-5.236-9.726-1.592-21.858 8.134-27.094 3.016-1.624 6.262-2.394 9.464-2.394 7.12 0 14.014 3.814 17.626 10.522 5.238 9.724 1.598 21.854-8.126 27.090zM772.731 621.617l-0.012-0.006c-9.724-5.236-13.358-17.362-8.122-27.088 3.612-6.708 10.506-10.52 17.63-10.52 3.202 0 6.452 0.772 9.468 2.396 9.724 5.236 13.364 17.366 8.126 27.092-5.234 9.722-17.362 13.36-27.090 8.126zM678.491 735.247c-9.41 5.79-21.726 2.856-27.516-6.55l-0.008-0.012c-5.79-9.408-2.852-21.72 6.554-27.51 3.268-2.010 6.884-2.968 10.458-2.968 6.718 0 13.282 3.386 17.060 9.526 5.792 9.406 2.858 21.726-6.548 27.514zM546.61 428.054c3.408 5.882 5.392 12.682 5.392 19.946 0 14.746-8.070 27.64-20 34.576v197.421c0 11.046-8.954 20-20 20s-20-8.954-20-20v-197.421c-11.93-6.936-20-19.83-20-34.576 0-22.032 17.968-40 40-40l68.678-118.954c3.704-6.416 10.426-10.002 17.338-10.002 3.392 0 6.832 0.864 9.982 2.682 9.566 5.522 12.844 17.754 7.32 27.32z" />
<glyph unicode="&#xe904;" glyph-name="code" d="M404.019 242.396c-3.868 0-7.764 1.33-10.943 4.038l-109.396 93.151c-3.774 3.217-5.943 7.915-5.943 12.877 0 4.953 2.179 9.651 5.943 12.868l109.396 93.151c7.104 6.057 17.774 5.198 23.83-1.906 6.047-7.113 5.198-17.783-1.915-23.83l-94.274-80.283 94.274-80.283c7.113-6.057 7.962-16.726 1.915-23.83-3.349-3.934-8.104-5.953-12.887-5.953zM619.981 242.396c-4.783 0-9.538 2.019-12.877 5.953-6.057 7.104-5.198 17.774 1.906 23.83l94.274 80.283-94.274 80.283c-7.104 6.047-7.962 16.717-1.906 23.83 6.047 7.104 16.726 7.962 23.821 1.906l109.396-93.151c3.774-3.217 5.943-7.915 5.943-12.868 0-4.962-2.17-9.66-5.943-12.877l-109.396-93.151c-3.179-2.708-7.075-4.038-10.943-4.038zM473.274 172.528c-1.16 0-2.33 0.123-3.509 0.368-9.132 1.925-14.981 10.896-13.057 20.028l68.179 323.708c1.925 9.132 10.887 14.981 20.028 13.057 9.132-1.925 14.981-10.887 13.057-20.028l-68.179-323.708c-1.679-7.962-8.698-13.425-16.519-13.425zM910.491-3.83h-796.981c-62.585 0-113.509 50.915-113.509 113.509v676.434c0 62.585 50.925 113.509 113.509 113.509h796.981c62.585 0 113.509-50.925 113.509-113.509v-676.434c0-62.594-50.925-113.509-113.509-113.509zM113.509 865.811c-43.943 0-79.698-35.755-79.698-79.698v-676.434c0-43.943 35.755-79.698 79.698-79.698h796.981c43.943 0 79.698 35.755 79.698 79.698v676.434c0 43.943-35.755 79.698-79.698 79.698zM1007.094 628.915h-990.189c-9.34 0-16.906 7.566-16.906 16.906 0 9.33 7.566 16.906 16.906 16.906h990.189c9.34 0 16.906-7.575 16.906-16.906 0-9.34-7.566-16.906-16.906-16.906zM288.849 709.811c-29.491 0-53.5 24.009-53.5 53.5 0 29.5 24.009 53.5 53.5 53.5 29.5 0 53.5-24 53.5-53.5 0-29.491-24-53.5-53.5-53.5zM288.849 783c-10.849 0-19.689-8.83-19.689-19.689s8.84-19.689 19.689-19.689c10.858 0 19.689 8.83 19.689 19.689s-8.83 19.689-19.689 19.689zM124.472 710.33c-29.5 0-53.5 24-53.5 53.5s24 53.5 53.5 53.5c29.5 0 53.5-24 53.5-53.5s-24-53.5-53.5-53.5zM124.472 783.519c-10.849 0-19.689-8.84-19.689-19.689 0-10.858 8.84-19.689 19.689-19.689 10.858 0 19.689 8.83 19.689 19.689 0 10.849-8.83 19.689-19.689 19.689zM453.226 709.302c-29.491 0-53.491 24-53.491 53.5 0 29.491 24 53.491 53.491 53.491 29.5 0 53.5-24 53.5-53.491 0-29.5-24-53.5-53.5-53.5zM453.226 782.491c-10.849 0-19.679-8.83-19.679-19.689s8.83-19.689 19.679-19.689c10.858 0 19.689 8.83 19.689 19.689s-8.83 19.689-19.689 19.689z" />
<glyph unicode="&#xe905;" glyph-name="computer" d="M970 920h-916c-29.82-0.036-53.982-24.209-54-54.030v-572.002c0.036-29.809 24.191-53.964 53.996-54h304.324l-67.024-143.968h-46.312c-33.137 0-60-26.863-60-60s26.863-60 60-60v0h534.024c33.137 0 60 26.863 60 60s-26.863 60-60 60v0h-46.304l-67.024 143.944h304.32c29.809 0.036 53.964 24.191 54 53.996v572.004c-0.005 29.833-24.172 54.020-53.996 54.056h-0.004zM28 865.968c0 14.366 11.637 26.014 25.998 26.032h916.002c14.352-0.018 25.982-11.648 26-25.998v-456.978h-52v416.944c0 0.007 0 0.016 0 0.024 0 7.734-6.267 14.003-14 14.008h-836c-7.733-0.005-14-6.274-14-14.008 0-0.008 0-0.017 0-0.025v0.001-416.944h-52zM916 409.024h-808v402.976h808zM811 36c0-17.673-14.327-32-32-32v0h-534.016c-17.673 0-32 14.327-32 32s14.327 32 32 32v0h534.024c17.67-0.005 31.992-14.33 31.992-32v0zM701.816 96h-379.64l67.032 143.936h245.6zM996 293.944c-0.018-14.352-11.648-25.982-25.998-26h-916.002c-14.352 0.018-25.982 11.648-26 25.998v87.082h968zM575 338.48h-126c-7.732 0-14-6.268-14-14s6.268-14 14-14v0h126c7.732 0 14 6.268 14 14s-6.268 14-14 14v0z" />
<glyph unicode="&#xe906;" glyph-name="css" d="M951.606 949.632c-6.080 6.592-14.592 10.368-23.616 10.368h-832c-8.96 0-17.536-3.776-23.616-10.368-6.016-6.656-9.024-15.488-8.256-24.384l75.776-864c1.152-13.312 10.368-24.384 23.168-28.032l340.224-96c2.88-0.832 5.76-1.216 8.704-1.216s5.888 0.384 8.704 1.152l340.096 95.936c12.8 3.648 21.952 14.784 23.168 28.032l75.904 864.064c0.834 8.96-2.176 17.792-8.256 24.448zM822.198 88.768l-310.208-87.488-310.272 87.552-70.784 807.168h762.112l-70.848-807.232zM759.35 757.888c-6.016 6.464-14.464 10.112-23.36 10.112h-448c-17.664 0-32-14.336-32-32s14.336-32 32-32h413.824l-28.352-424.448-161.472-53.824-160 53.312v40.96c0 17.664-14.336 32-32 32s-32-14.336-32-32v-64c0-13.76 8.832-25.984 21.888-30.4l192-64c3.264-1.024 6.72-1.6 10.112-1.6 3.456 0 6.784 0.576 10.112 1.664l192 64c12.352 4.096 20.928 15.232 21.824 28.224l32 480c0.576 8.832-2.56 17.536-8.576 24zM718.71 512h-423.040c-17.664 0-32-14.336-32-32s14.336-32 32-32h423.040c17.728 0 32 14.336 32 32s-14.336 32-32 32z" />
<glyph unicode="&#xe907;" glyph-name="desktop" d="M168 192c-13.249-0.015-23.985-10.751-24-23.999v-172.001c0.017-15.457 12.543-27.983 27.998-28h488.002c15.457 0.017 27.983 12.543 28 27.998v172.002c-0.015 13.249-10.751 23.985-23.999 24h-0.001zM656 0h-480v160h480zM336 64h160v-32h-160zM208 128h32v-32h-32zM272 128h32v-32h-32zM336 128h32v-32h-32zM400 128h32v-32h-32zM464 128h32v-32h-32zM528 128h32v-32h-32zM592 128h32v-32h-32zM528 64h32v-32h-32zM592 64h32v-32h-32zM208 64h32v-32h-32zM272 64h32v-32h-32zM112 860v-440c0.043-37.538 30.462-67.957 67.996-68h212.918l-39.894-106.382c-0.645-1.669-1.019-3.6-1.019-5.618 0-8.836 7.163-15.999 15.999-16h288c8.836 0.001 15.999 7.164 15.999 16 0 2.018-0.374 3.949-1.056 5.728l0.037-0.11-39.894 106.382h212.914c37.538 0.043 67.957 30.462 68 67.996v440.004c-0.043 37.538-30.462 67.957-67.996 68h-664.004c-37.538-0.043-67.957-30.462-68-67.996v-0.004zM632.912 256h-241.824l36 96h20.912c0-35.346 28.654-64 64-64s64 28.654 64 64v0h20.912zM480 352h64c0-17.673-14.327-32-32-32s-32 14.327-32 32v0zM880 420c-0.024-19.873-16.127-35.976-35.998-36h-664.002c-19.873 0.024-35.976 16.127-36 35.998v28.002h736zM880 860v-380h-736v380c0.024 19.873 16.127 35.976 35.998 36h664.002c19.873-0.024 35.976-16.127 36-35.998v-0.002zM720 96v-32c0-44.183 35.817-80 80-80s80 35.817 80 80v0 32c0 44.183-35.817 80-80 80s-80-35.817-80-80v0zM848 96v-32c0-26.51-21.49-48-48-48s-48 21.49-48 48v0 32c0 26.51 21.49 48 48 48s48-21.49 48-48v0zM784 112h32v-48h-32z" />
<glyph unicode="&#xe908;" glyph-name="devices-1" d="M983.28 586.167v248.905c0 39.848-32.42 72.267-72.267 72.267h-838.746c-39.85 0-72.267-32.42-72.267-72.267v-507.055c0-39.848 32.42-72.267 72.267-72.267h237.705l-27.211-29.287h-40.767c-9.267 0-16.78-7.513-16.78-16.78s7.513-16.78 16.78-16.78h233.494v-161.838c0-23.378 19.020-42.4 42.4-42.4h180.393c23.378 0 42.4 19.020 42.4 42.4v34.084h225.84c31.695 0 57.478 25.795 57.478 57.5v408.522c0 25.871-17.17 47.799-40.72 54.997zM990.439 531.17v-4.584h-385.924v4.584c0 13.2 10.739 23.94 23.94 23.94h338.067c13.189-0.002 23.917-10.742 23.917-23.94zM698.281 389.401h-93.766v103.624h385.924v-332.229h-249.758v186.207c0 23.378-19.022 42.398-42.4 42.398zM707.121 324.945h-198.070v22.056c0 4.873 3.965 8.84 8.84 8.84h180.393c4.873 0 8.84-3.965 8.84-8.84v-22.056zM949.717 818.292v-229.621h-321.264c-31.706 0-57.5-25.795-57.5-57.5v-141.769h-53.066c-23.36 0-42.367-18.991-42.396-42.344h-441.932v471.235h916.159zM509.047 291.384h198.070v-204.708h-198.070v204.708zM72.265 873.778h838.746c15.326 0 28.56-8.976 34.825-21.926h-908.397c6.267 12.95 19.501 21.926 34.827 21.926zM36.411 313.494h439.077v-24.186h-403.223c-16.205 0.002-30.097 10.023-35.854 24.186zM328.571 226.462l27.211 29.287h119.706v-29.287h-146.917zM698.279 22.222h-180.393c-4.873 0-8.84 3.965-8.84 8.84v22.054h198.070v-22.054c0.002-4.873-3.965-8.84-8.838-8.84zM966.52 98.706h-225.84v28.526h249.758v-4.587c0-13.198-10.728-23.94-23.917-23.94z" />
<glyph unicode="&#xe909;" glyph-name="devices" d="M971.094 456.534h-117.76v307.2c-0.058 47.104-38.23 85.276-85.334 85.332h-512c-47.104-0.056-85.276-38.228-85.334-85.334v-102.4h-93.628c-42.528-0.046-76.992-34.51-77.038-77.038v-460.322c0.046-42.528 34.51-76.992 77.038-77.038h272.588c32.48 0.098 61.4 20.588 72.26 51.2h294.914c9.426 0 17.066 7.64 17.066 17.066v34.134c0 28.276-22.924 51.2-51.2 51.2h-51.2v68.266h136.534v-168.96c0-29.22 23.688-52.906 52.906-52.906h150.186c29.22 0 52.906 23.688 52.906 52.906v303.786c0.002 29.22-23.686 52.908-52.904 52.908zM392.534 123.972c-0.018-23.688-19.218-42.886-42.906-42.906h-272.59c-23.688 0.018-42.886 19.218-42.906 42.906v8.294h358.4v-8.294zM392.534 166.4h-358.4v375.466h358.4v-375.466zM392.534 576h-358.4v8.294c0.018 23.688 19.218 42.886 42.906 42.906h272.588c23.688-0.018 42.886-19.218 42.906-42.906v-8.294zM682.666 166.4c9.426 0 17.066-7.642 17.066-17.066v-17.066h-273.066v34.132h256zM426.666 200.534v68.266h170.666v-68.266h-170.666zM768 302.934h-341.334v51.2h341.334v-51.2zM768 403.626v-15.36h-341.334v196.028c-0.048 42.528-34.512 76.992-77.038 77.038h-144.828v102.4c0 28.276 22.922 51.2 51.2 51.2h512c28.276 0 51.2-22.922 51.2-51.2v-307.37c-28.484-0.918-51.122-24.236-51.2-52.736zM989.866 99.84c0-10.368-8.406-18.774-18.774-18.774h-150.186c-10.368 0-18.774 8.406-18.774 18.774v15.36h187.734v-15.36zM989.866 149.334h-187.734v204.8h187.734v-204.8zM989.866 388.266h-187.734v15.36c0 10.368 8.406 18.774 18.774 18.774h150.186c10.368 0 18.774-8.406 18.774-18.774v-15.36z" />
<glyph unicode="&#xe90a;" glyph-name="double-down-arrows" d="M46.608 727.569l383.926-312.712c23.317-18.991 51.591-28.486 79.971-28.486s56.656 9.495 79.973 28.486l386.879 315.138c54.229 44.206 62.353 123.861 18.147 178.090-44.1 54.229-123.86 62.352-178.090 18.252l-306.91-250.043-303.955 247.616c-54.229 44.1-133.989 35.977-178.090-18.252-44.205-54.229-35.976-133.884 18.148-178.090zM46.608 282.451l383.926-312.711c23.317-18.991 51.591-28.486 79.971-28.486s56.656 9.495 79.973 28.486l386.879 315.138c54.229 44.205 62.353 123.86 18.147 178.090-44.205 54.228-123.86 62.352-178.090 18.147l-306.91-249.937-303.955 247.511c-54.229 44.206-133.989 35.978-178.090-18.146-44.205-54.231-35.976-133.99 18.148-178.092z" />
<glyph unicode="&#xe90b;" glyph-name="down" d="M511.95-47.404l-487.556 487.489c-32.559 32.559-32.559 85.314 0 117.806 32.626 32.526 85.347 32.559 117.806 0l369.749-369.716 369.782 369.716c32.593 32.559 85.314 32.559 117.773 0 32.593-32.626 32.626-85.381 0-117.806l-487.556-487.489zM999.506 801.203c32.626 32.593 32.626 85.347 0 117.806-32.559 32.559-85.281 32.559-117.773 0l-369.749-369.749-369.749 369.782c-32.626 32.559-85.314 32.559-117.806 0-32.526-32.593-32.559-85.314 0-117.806l487.622-487.589 487.456 487.556z" />
<glyph unicode="&#xe90c;" glyph-name="email" d="M927.999 832.001h-831.999c-52.938 0-96.001-43.063-96.001-96.001v-576c0-52.938 43.063-96.001 96.001-96.001h831.999c52.938 0 96.001 43.063 96.001 96.001v576c0 52.938-43.063 96.001-96.001 96.001zM927.999 768.001c4.348 0 8.484-0.902 12.265-2.477l-428.264-371.18-428.267 371.18c3.781 1.573 7.917 2.477 12.265 2.477zM927.999 128.001h-831.999c-17.656 0-32.001 14.343-32.001 32.001v537.905l427.031-370.094c6.032-5.218 13.501-7.813 20.969-7.813s14.937 2.593 20.969 7.813l427.031 370.094v-537.907c-0.002-17.656-14.345-31.999-32.001-31.999z" />
<glyph unicode="&#xe90d;" glyph-name="github" d="M511.936 949.342c-282.688 0-511.936-230.144-511.936-514.048 0-227.072 146.688-419.712 350.208-487.744 25.6-4.736 34.944 11.136 34.944 24.768 0 12.224-0.448 44.544-0.704 87.424-142.4-31.040-172.48 68.928-172.48 68.928-23.232 59.392-56.832 75.2-56.832 75.2-46.528 31.872 3.456 31.232 3.456 31.232 51.392-3.648 78.4-52.992 78.4-52.992 45.696-78.528 119.872-55.872 149.056-42.688 4.608 33.216 17.856 55.872 32.512 68.736-113.664 12.992-233.216 57.088-233.216 254.016 0 56.128 19.968 102.016 52.736 137.984-5.312 12.992-22.848 65.28 4.992 136 0 0 43.008 13.824 140.8-52.672 40.832 11.392 84.608 17.088 128.192 17.28 43.456-0.256 87.296-5.888 128.192-17.344 97.728 66.496 140.672 52.672 140.672 52.672 27.904-70.784 10.368-123.008 5.12-136 32.832-35.968 52.608-81.856 52.608-137.984 0-197.44-119.68-240.896-233.728-253.632 18.368-15.872 34.752-47.232 34.752-95.168 0-68.736-0.64-124.16-0.64-140.992 0-13.76 9.216-29.76 35.2-24.704 203.2 68.096 349.76 260.672 349.76 487.68 0 283.904-229.248 514.048-512.064 514.048z" />
<glyph unicode="&#xe90e;" glyph-name="html" d="M246.754 443.69c1.748-19.598 18.528-34.95 38.204-34.95h338.354l-9.178-102.35c-0.272-0.938-1.612-2.534-2.488-2.964l-89.46-24.176c-4.076-1.102-7.808-2.11-10.616-2.864-2.804 0.754-6.536 1.76-10.608 2.86l-89.302 24.114c-0.874 0.428-2.208 2.016-2.476 2.95l-4.816 53.944c-1.754 19.594-18.536 34.942-38.206 34.942h-76.336c-10.020 0-19.578-4.17-26.228-11.438-6.648-7.27-9.952-17.158-9.062-27.136l12.31-138.156c1.546-17.352 15.372-33.946 32.154-38.6l191.226-53.062c14.332-3.976 18.754-5.204 21.836-5.204 1.374 0 2.484 0.244 4.090 0.598 0.64 0.144 0.814 0.182 17.132 4.702l191.024 52.968c14.652 4.066 30.078 15.358 31.506 31.416l27.702 310.252c0.862 9.522-2.278 18.968-8.622 25.916-6.342 6.94-15.454 10.922-25.004 10.922h-363.204l-6.322 70.646h393.908c10.546 0 19.352 8.038 20.312 18.538l8.632 94.26c0.83 9.344-2.218 18.324-8.584 25.28-6.702 7.322-16.49 11.526-26.852 11.526-0.002 0-0.006 0-0.008 0h-512.18c-10.37 0-20.164-4.2-26.866-11.526-6.362-6.958-9.41-15.93-8.58-25.282l26.608-298.126zM761.884 737.828l-6.23-68.010h-381.162c-10.018 0-19.574-4.168-26.222-11.436-6.648-7.27-9.952-17.158-9.060-27.144l7.040-78.706c1.744-19.6 18.53-34.954 38.21-34.954h357.746l-26.56-297.53c-0.64-0.318-1.402-0.634-2.238-0.864l-191.018-52.966c-4.126-1.144-7.92-2.192-10.768-2.978-2.568 0.696-6.116 1.666-10.486 2.878l-191.090 53.022c-0.91 0.444-2.302 2.116-2.576 3.094l-11.774 132.168h68.242l4.63-51.858c1.55-17.41 15.446-33.974 32.318-38.53l89.446-24.154c18.482-4.99 18.482-4.99 21.246-4.99 2.758 0 2.758 0 21.25 4.996l89.602 24.212c16.87 4.554 30.766 21.114 32.328 38.516l9.718 108.352c0.896 9.98-2.406 19.876-9.050 27.146-6.646 7.27-16.206 11.442-26.226 11.442h-342.010l-25.73 288.294h500.424zM956.4 948.554c-6.648 7.274-16.214 11.446-26.234 11.446h-836.332c-10.016 0-19.572-4.168-26.22-11.434-6.65-7.268-9.954-17.156-9.066-27.14l76.184-854.486c1.544-17.35 15.366-33.948 32.152-38.61l323.27-89.76c6.166-1.714 13.732-2.57 21.3-2.57 7.552 0 15.106 0.854 21.274 2.562l324.254 89.906c16.79 4.654 30.616 21.248 32.164 38.596l76.306 854.346c0.894 9.98-2.404 19.872-9.052 27.144zM848.524 70.836c-0.28-0.998-1.722-2.716-2.442-3.054l-324.248-89.904c-5.15-1.426-15.628-1.428-20.766 0.002l-323.082 89.696c-0.928 0.408-2.412 2.19-2.62 2.98l-75.662 848.648h824.588l-75.768-848.368zM381.454 890.642h-226.42c-11.264 0-20.398-9.134-20.398-20.398s9.134-20.398 20.398-20.398h226.42c11.266 0 20.398 9.134 20.398 20.398s-9.134 20.398-20.398 20.398zM465.086 890.642h-8.16c-11.264 0-20.398-9.134-20.398-20.398s9.134-20.398 20.398-20.398h8.16c11.266 0 20.398 9.134 20.398 20.398s-9.134 20.398-20.398 20.398z" />
<glyph unicode="&#xe90f;" glyph-name="html-5" d="M951.606 949.632c-6.080 6.592-14.592 10.368-23.616 10.368h-832c-8.96 0-17.536-3.776-23.616-10.368-6.016-6.656-9.024-15.488-8.256-24.384l75.776-864c1.152-13.312 10.368-24.384 23.168-28.032l340.224-96c2.88-0.832 5.76-1.216 8.704-1.216s5.888 0.384 8.704 1.152l340.096 95.936c12.8 3.648 21.952 14.784 23.168 28.032l75.904 864.064c0.834 8.96-2.176 17.792-8.256 24.448zM822.198 88.768l-310.208-87.488-310.272 87.552-70.784 807.168h762.112l-70.848-807.232zM735.99 512h-416v192h416c17.664 0 32 14.336 32 32s-14.336 32-32 32h-448c-17.664 0-32-14.336-32-32v-256c0-17.664 14.336-32 32-32h411.136l-24-167.872-163.136-54.4-160 53.312v72.96c0 17.664-14.336 32-32 32s-32-14.336-32-32v-96c0-13.76 8.832-25.984 21.888-30.4l192-64c3.264-1.024 6.72-1.6 10.112-1.6 3.456 0 6.784 0.576 10.112 1.664l192 64c11.52 3.84 19.84 13.824 21.568 25.856l32 224c1.344 9.152-1.408 18.496-7.488 25.472s-14.912 11.008-24.192 11.008z" />
<glyph unicode="&#xe910;" glyph-name="js" d="M1006.934 960h-989.868c-9.438 0-17.066-7.646-17.066-17.066v-989.866c0-9.422 7.628-17.068 17.066-17.068h989.866c9.438 0 17.066 7.646 17.066 17.066v989.868c0.002 9.42-7.626 17.066-17.064 17.066zM989.866-29.866h-955.732v955.732h955.734v-955.732zM785.066 55.466c-65.86 0-119.466 53.59-119.466 119.466 0 9.42-7.628 17.066-17.066 17.066s-17.066-7.646-17.066-17.066c0-84.684 68.898-153.6 153.6-153.6s153.6 68.916 153.6 153.6c0 84.684-68.898 153.6-153.6 153.6-65.86 0-119.466 53.59-119.466 119.466s53.606 119.466 119.466 119.466c65.86 0 119.466-53.59 119.466-119.466 0-9.42 7.628-17.066 17.066-17.066s17.066 7.646 17.066 17.066c0 84.684-68.898 153.6-153.6 153.6s-153.6-68.916-153.6-153.6 68.898-153.6 153.6-153.6c65.86 0 119.466-53.59 119.466-119.466 0.002-65.876-53.604-119.466-119.466-119.466zM426.666 21.334c84.702 0 153.6 68.916 153.6 153.6v409.6c0 9.42-7.628 17.066-17.066 17.066s-17.066-7.646-17.066-17.066v-409.6c0-65.878-53.606-119.466-119.466-119.466s-119.466 53.59-119.466 119.466c0 9.42-7.628 17.066-17.066 17.066s-17.066-7.646-17.066-17.066c-0.004-84.686 68.894-153.6 153.596-153.6z" />
<glyph unicode="&#xe911;" glyph-name="linkedin" d="M320.016 114h-140v452h140zM333.984 710.008c0 45.258-36.719 81.992-81.953 81.992-45.406 0-82.031-36.734-82.031-81.992 0-45.273 36.625-82.008 82.031-82.008 45.234 0 81.953 36.734 81.953 82.008zM844 362.672c0 121.336-25.633 211.328-167.375 211.328-68.109 0-113.828-34.063-132.492-69.484h-0.133v61.484h-136v-452h136v224.422c0 58.773 14.961 115.711 87.813 115.711 71.859 0 74.188-67.211 74.188-119.445v-220.688h138zM1024 56v784c0 66.172-53.828 120-120 120h-784c-66.172 0-120-53.828-120-120v-784c0-66.172 53.828-120 120-120h784c66.172 0 120 53.828 120 120zM904 880c22.055 0 40-17.945 40-40v-784c0-22.055-17.945-40-40-40h-784c-22.055 0-40 17.945-40 40v784c0 22.055 17.945 40 40 40z" />
<glyph unicode="&#xe912;" glyph-name="microscope" d="M153.601-63.998h648.532c9.425 0 17.067 7.642 17.067 17.067v232.4c16.525 19.292 68.267 89.392 68.267 211.333s-51.742 192.041-68.267 211.325v61.742c0 9.425-7.642 17.067-17.067 17.067h-129.466l107.4 107.4c6.667 6.658 6.667 17.467 0 24.133l-5 5 39.133 39.133c6.667 6.667 6.667 17.467 0 24.133l-68.267 68.267c-6.658 6.667-17.467 6.667-24.133 0l-39.133-39.133-5 5c-6.667 6.667-17.467 6.667-24.133 0l-273.066-273.066c-6.667-6.667-6.667-17.475 0-24.133l5-5-56.2-56.2c-6.667-6.667-6.667-17.475 0-24.133l68.267-68.267c6.667-6.667 17.467-6.667 24.133 0l56.2 56.2 5-5c6.667-6.667 17.475-6.667 24.133 0l43.35 43.35c36.95-24.667 86.692-16.5 113.808 18.692 21.958-11.508 103.842-62.733 103.842-186.508 0-112.225-88.8-175.716-107.317-187.733h-80.417v119.466c0 9.425-7.642 17.067-17.067 17.067h-307.2c-9.425 0-17.067-7.642-17.067-17.067v-68.267c0-9.425 7.642-17.067 17.067-17.067h221.866v-34.133h-51.2c-9.425 0-17.067-7.642-17.067-17.067v-119.466h-187.733c-47.108-0.058-85.275-38.233-85.333-85.333v-34.133c0-9.425 7.642-17.067 17.067-17.067zM733.866 918.8l44.133-44.133-27.067-27.067-44.133 44.133zM409.6 506.267l-44.133 44.133 44.133 44.133 44.133-44.133zM597.333 584.534c-28.275 0-51.2 22.925-51.2 51.2s22.925 51.2 51.2 51.2 51.2-22.925 51.2-51.2c-0.033-28.267-22.933-51.167-51.2-51.2zM644.316 706.85c-33.783 22.425-78.692 17.933-107.358-10.742-28.675-28.667-33.167-73.575-10.742-107.358l-31.283-31.283-78.267 78.267 248.933 248.933 78.267-78.267zM680.941 618.667c2.3 11.258 2.3 22.867 0 34.133h104.125v-34.133zM802.133 396.801c2.383 71.442-27.142 140.241-80.567 187.733h72.842c40.392-54.067 61.175-120.283 58.925-187.733 2.25-67.45-18.533-133.666-58.917-187.733h-78.333c54.017 47.542 85.292 115.783 86.050 187.733zM273.067 277.334v34.133h273.066v-34.133zM546.133 243.201v-119.466c0-9.425-7.642-17.067-17.067-17.067s-17.067 7.642-17.067 17.067v119.466zM443.733 174.935h34.133v-51.2c0-28.275 22.925-51.2 51.2-51.2s51.2 22.925 51.2 51.2v51.2h204.8v-102.4h-341.333zM170.667-12.798c0.033 28.267 22.933 51.167 51.2 51.2h563.199v-68.267h-614.399zM716.8 140.801h34.133v-34.133h-34.133zM648.533 140.801h34.133v-34.133h-34.133z" />
<glyph unicode="&#xe913;" glyph-name="note" d="M779.379 898.074h-145.771v-29.542h145.771c11.182-0.002 20.28-9.098 20.28-20.282 0-3.252-0.748-6.356-2.224-9.224l26.27-13.51c3.594 6.988 5.494 14.85 5.494 22.734 0.002 27.474-22.348 49.824-49.82 49.824zM554.292 898.072h36.702v-29.542h-36.702v29.542zM183.391 633.729h521.914v-29.542h-521.914v29.542zM183.391 95.233h521.914v-29.542h-521.914v29.542zM878.841 624.155l-20.89-20.888 18.368-18.37-60.658-60.658 20.888-20.89 81.548 81.548zM777.502 486.062l19.677 19.677 20.888-20.888-19.677-19.677-20.888 20.888zM1000.152 710.733l-10.928 10.928c-31.746 31.748-83.408 31.748-115.156 0l-85.716-85.714v112.434c51.108 4.558 91.316 47.594 91.316 99.868 0 55.3-44.992 100.292-100.29 100.292h-679.087c-55.298 0-100.29-44.99-100.29-100.29v-798.513h85.52v-102.282h702.835v436.322l211.795 211.797c15.38 15.38 23.85 35.826 23.85 57.576s-8.466 42.204-23.848 57.582zM171.301 919h608.078c39.012 0 70.748-31.738 70.748-70.75s-31.738-70.748-70.748-70.748h-608.078c18.084 18.15 29.282 43.166 29.282 70.748 0 27.586-11.196 52.6-29.282 70.75zM85.52 777.503v0-698.223h-55.978v768.971c0 39.012 31.74 70.75 70.75 70.75s70.748-31.74 70.748-70.75c0-39.012-31.74-70.748-70.748-70.748h-14.772zM758.815-23.002v0h-643.755v770.961h643.753v-141.553l-64.044-64.042h-511.384v-29.542h481.846l-61.83-61.83h-420.016v-29.542h390.476l-61.828-61.828h-328.647v-29.542h299.107l-5.154-5.154-16.802-56.676h-277.151v-29.542h268.395l-18.33-61.83h-250.065v-29.542h521.908v29.542h-175.955l74.084 21.96 39.866 39.866h62.002v29.542h-32.46l85.984 85.984v-377.231zM497.538 289.141l70.094-70.094-99.626-29.534 29.532 99.628zM595.626 232.829l-84.306 84.306 352.065 352.065 84.306-84.306-352.065-352.065zM979.266 616.467l-10.682-10.682-84.306 84.306 10.682 10.682c20.23 20.23 53.146 20.23 73.378 0l10.928-10.928c9.8-9.8 15.198-22.83 15.198-36.688-0.002-13.86-5.4-26.89-15.198-36.69z" />
<glyph unicode="&#xe914;" glyph-name="phone-1" d="M941.835 287.861c-62.693 0-124.251 9.805-182.584 29.083-29.083 9.917-62.195 2.221-81.168-17.112l-115.139-86.917c-133.528 71.277-215.779 153.501-286.083 286.027l84.36 112.139c21.917 21.888 29.779 53.861 20.36 83.861-19.36 58.64-29.195 120.168-29.195 182.888 0.003 45.309-36.859 82.171-82.165 82.171h-188.056c-45.304 0-82.165-36.861-82.165-82.165 0-519.336 422.501-941.835 941.835-941.835 45.307 0 82.168 36.861 82.168 82.168v187.528c-0.003 45.304-36.864 82.165-82.168 82.165zM967.112 18.165c0-13.944-11.333-25.277-25.277-25.277-487.973 0-884.944 396.973-884.944 884.944 0 13.944 11.333 25.277 25.277 25.277h188.056c13.944 0 25.277-11.333 25.277-25.277 0-68.805 10.805-136.333 31.944-200.307 2.944-9.445 0.555-19.221-9-29.168l-97.779-129.496c-6.555-8.693-7.584-20.333-2.667-30.027 79.805-156.861 176.779-253.835 334.749-334.779 9.611-5.027 21.389-3.973 30.112 2.611l132.472 100.36c6.693 6.693 16.723 9.083 25.779 6 64.416-21.277 131.944-32.056 200.723-32.056 13.944 0 25.277-11.333 25.277-25.277v-187.528z" />
<glyph unicode="&#xe915;" glyph-name="phone" d="M597.334 908.8h-170.666c-9.42 0-17.066-7.646-17.066-17.066s7.646-17.066 17.066-17.066h170.666c9.42 0 17.066 7.646 17.066 17.066s-7.646 17.066-17.066 17.066zM716.8 908.8h-17.066c-9.42 0-17.066-7.646-17.066-17.066s7.646-17.066 17.066-17.066h17.066c9.42 0 17.066 7.646 17.066 17.066s-7.646 17.066-17.066 17.066zM533.196 89.6h-42.376c-25.958 0-47.086-21.128-47.086-47.086v-8.244c0-25.958 21.128-47.070 47.070-47.070h42.376c25.958 0 47.086 21.112 47.086 47.070v8.244c0 25.958-21.128 47.086-47.070 47.086zM546.134 34.27c0-7.134-5.802-12.936-12.936-12.936h-42.378c-7.15 0-12.954 5.802-12.954 12.936v8.244c0 7.15 5.802 12.954 12.954 12.954h42.36c7.152 0 12.954-5.802 12.954-12.954v-8.244zM740.454 960h-456.892c-34.014 0-61.696-27.682-61.696-61.696v-900.608c0-34.014 27.682-61.696 61.696-61.696h456.874c34.014 0 61.696 27.682 61.696 61.678v900.626c0.002 34.014-27.68 61.696-61.678 61.696zM768-2.304c0-15.19-12.356-27.562-27.546-27.562h-456.892c-15.206 0-27.562 12.374-27.562 27.546v900.624c0 15.19 12.356 27.562 27.562 27.562h456.874c15.206 0 27.562-12.374 27.562-27.562v-900.608zM785.066 857.6h-546.132c-9.42 0-17.066-7.646-17.066-17.066v-716.8c0-9.42 7.646-17.066 17.066-17.066h546.134c9.42 0 17.066 7.646 17.066 17.066v716.8c0 9.42-7.646 17.066-17.068 17.066zM768 140.8h-512v682.666h512v-682.666z" />
<glyph unicode="&#xe916;" glyph-name="speak" d="M972.75 531.396c-10.359 0-18.75-8.402-18.75-18.75v-66.82c0-38.344-31.201-69.545-69.545-69.545h-106.875c-4.975 0-9.738-1.969-13.26-5.484l-129.568-129.574v116.309c0 10.359-8.396 18.75-18.75 18.75h-268.453c-38.344 0-69.545 31.195-69.545 69.545v283.635c0 38.344 31.201 69.539 69.545 69.539h536.906c38.344 0 69.545-31.195 69.545-69.539v-66.814c0-10.359 8.391-18.75 18.75-18.75 10.348 0 18.75 8.391 18.75 18.75v66.814c0 59.021-48.018 107.039-107.045 107.039h-536.906c-59.027 0-107.045-48.018-107.045-107.039v-240.885h-136.471c-39.99 0-72.533-32.531-72.533-72.533v-172.781c0-40.002 32.543-72.533 72.533-72.533h57.346l92.93-92.936c3.592-3.592 8.391-5.496 13.266-5.496 2.414 0 4.857 0.469 7.172 1.43 7.008 2.9 11.578 9.732 11.578 17.32v79.682h144.785c39.996 0 72.533 32.531 72.533 72.533v95.52h93.609v-142.822c0-7.588 4.57-14.42 11.578-17.32 2.314-0.961 4.752-1.43 7.172-1.43 4.881 0 9.674 1.904 13.26 5.496l156.082 156.076h99.111c59.027 0 107.045 48.018 107.045 107.045v66.82c0 10.348-8.402 18.75-18.75 18.75zM466.148 243.262c0-19.324-15.715-35.033-35.039-35.033h-163.535c-10.359 0-18.75-8.402-18.75-18.75v-53.168l-66.422 66.422c-3.516 3.516-8.285 5.496-13.26 5.496h-65.109c-19.318 0-35.033 15.709-35.033 35.033v172.781c0 19.318 15.715 35.033 35.033 35.033h136.471v-5.25c0-59.027 48.018-107.045 107.045-107.045h118.6zM798.814 713.629h-365.625c-10.354 0-18.75-8.396-18.75-18.75 0-10.359 8.396-18.75 18.75-18.75h365.625c10.354 0 18.75 8.391 18.75 18.75 0 10.354-8.396 18.75-18.75 18.75zM817.564 593.623c0 10.354-8.396 18.75-18.75 18.75h-365.625c-10.354 0-18.75-8.396-18.75-18.75 0-10.359 8.396-18.75 18.75-18.75h365.625c10.354 0 18.75 8.391 18.75 18.75zM433.189 511.123c-10.354 0-18.75-8.396-18.75-18.75 0-10.359 8.396-18.75 18.75-18.75h210.937c10.354 0 18.75 8.391 18.75 18.75 0 10.354-8.396 18.75-18.75 18.75zM972.75 606.396c-10.324 0-18.75-8.426-18.75-18.75 0-10.33 8.426-18.75 18.75-18.75s18.75 8.42 18.75 18.75c0 10.324-8.426 18.75-18.75 18.75z" />
<glyph unicode="&#xe917;" glyph-name="tab" d="M1.012 700.964v-764.964h1021.976v764.964h-1021.976zM992.632-33.644h-961.264v704.252h961.264v-704.252zM58.688 547.162h904.6v-30.356h-904.6v30.356zM527.178 624.064h30.356v-30.356h-30.356v30.356zM648.6 624.064h30.356v-30.356h-30.356v30.356zM223.62 624.064h30.356v-30.356h-30.356v30.356zM770.024 624.064h30.356v-30.356h-30.356v30.356zM709.312 624.064h30.356v-30.356h-30.356v30.356zM587.89 624.064h30.356v-30.356h-30.356v30.356zM345.044 624.064h30.356v-30.356h-30.356v30.356zM284.332 624.064h30.356v-30.356h-30.356v30.356zM405.754 624.064h30.356v-30.356h-30.356v30.356zM466.466 624.064h30.356v-30.356h-30.356v30.356zM152.79 960v-71.842h30.356v41.486h657.708v-41.486h30.356v71.842zM71.842 862.862v-136.602h30.356v106.246h819.604v-106.246h30.356v136.602z" />
<glyph unicode="&#xe918;" glyph-name="website" d="M926.886 798.761c-6.956 54.687-53.747 97.114-110.291 97.114h-705.378c-61.326 0-111.217-49.891-111.217-111.217v-577.127c0-56.544 42.429-103.334 97.114-110.291 6.956-54.687 53.747-97.114 110.291-97.114h705.378c61.326 0 111.217 49.891 111.217 111.217v577.127c0 56.544-42.429 103.334-97.114 110.291zM30.059 207.53v577.127c0 44.751 36.407 81.159 81.159 81.159h705.378c39.613 0 72.67-28.538 79.74-66.129h-688.93c-44.499 0-82.958-26.279-100.723-64.125h-27.528c-8.3 0-15.029-6.727-15.029-15.029s6.729-15.029 15.029-15.029h18.338c-0.858-5.555-1.305-11.242-1.305-17.033v-560.679c-37.591 7.070-66.129 40.124-66.129 79.74zM993.941 111.342c0-44.751-36.407-81.159-81.159-81.159h-705.378c-44.751 0-81.159 36.407-81.159 81.159v577.127c0 44.751 36.407 81.159 81.159 81.159h705.378c44.751 0 81.159-36.407 81.159-81.159v-577.127zM944.845 639.374h-769.503c-8.3 0-15.029-6.727-15.029-15.029s6.729-15.029 15.029-15.029h769.503c8.3 0 15.029 6.727 15.029 15.029s-6.729 15.029-15.029 15.029zM207.405 689.472c3.968 0 7.835 1.603 10.621 4.409 2.805 2.785 4.409 6.653 4.409 10.621s-1.603 7.835-4.409 10.621c-2.785 2.805-6.673 4.409-10.621 4.409s-7.835-1.603-10.621-4.409c-2.805-2.785-4.409-6.671-4.409-10.621 0-3.948 1.603-7.835 4.409-10.621 2.785-2.805 6.653-4.409 10.621-4.409zM335.656 689.472c3.968 0 7.835 1.603 10.621 4.409 2.805 2.785 4.409 6.653 4.409 10.621s-1.603 7.835-4.409 10.621c-2.785 2.805-6.673 4.409-10.621 4.409s-7.835-1.603-10.621-4.409c-2.805-2.785-4.409-6.651-4.409-10.621 0-3.966 1.603-7.835 4.409-10.621 2.785-2.805 6.653-4.409 10.621-4.409zM271.53 689.472c3.968 0 7.835 1.603 10.621 4.409 2.805 2.785 4.409 6.673 4.409 10.621 0 3.968-1.603 7.835-4.409 10.621-2.785 2.805-6.673 4.409-10.621 4.409s-7.835-1.603-10.621-4.409c-2.805-2.785-4.409-6.651-4.409-10.621 0-3.948 1.603-7.835 4.409-10.621 2.785-2.805 6.653-4.409 10.621-4.409z" />
<glyph unicode="&#xe919;" glyph-name="work" d="M185.090 589.82c102.058 0 185.090 83.032 185.090 185.090s-83.032 185.090-185.090 185.090-185.090-83.032-185.090-185.090 83.032-185.090 185.090-185.090zM185.090 920c80.002 0 145.090-65.088 145.090-145.090s-65.088-145.090-145.090-145.090-145.090 65.088-145.090 145.090 65.088 145.090 145.090 145.090zM201.002 730.948c3.904-3.89 9.012-5.834 14.12-5.834 5.128 0 10.26 1.96 14.166 5.88 7.796 7.824 7.776 20.488-0.046 28.286l-24.016 23.936v88.784c0 11.044-8.956 20-20 20s-20-8.956-20-20v-97.090c0-5.316 2.118-10.414 5.88-14.166l29.896-29.796zM1004 296h-123.094c-16.92 24.068-42.344 41.116-71.342 47.456l-87.928 19.226c35.982 24.268 59.694 65.404 59.694 111.976v76.512c0 74.424-60.548 134.972-134.972 134.972s-134.972-60.548-134.972-134.972v-76.512c0-46.512 23.65-87.606 59.556-111.886l-87.872-19.278c-3.754-0.824-7.444-1.834-11.070-3.004v165.51c0 11.044-8.956 20-20 20h-136c-11.044 0-20-8.956-20-20s8.956-20 20-20h116v-280h-136v100c0 33.084-26.916 60-60 60s-60-26.916-60-60v-100h-136v280h116c11.044 0 20 8.956 20 20s-8.956 20-20 20h-136c-11.044 0-20-8.956-20-20v-320c0-11.044 8.956-20 20-20h156v-38h-2c-34.188 0-62-27.812-62-62v-10h-92c-11.044 0-20-8.956-20-20v-80c0-11.044 8.956-20 20-20h984c11.044 0 20 8.956 20 20v320c0 11.044-8.956 20-20 20zM882.358 56h-114.358v40h216v-40h-101.642zM984 136h-216v40h216v-40zM984 216h-216v40h101.748c0.060 0 0.12-0.012 0.178-0.012 0.062 0 0.126 0.012 0.188 0.012h113.886v-40zM551.384 551.168c0 52.368 42.606 94.972 94.972 94.972 49.866 0 90.878-38.628 94.684-87.534l-46.492 27.314c-8.422 4.95-19.186 3.088-25.46-4.398-20.252-24.17-49.954-38.034-81.488-38.034h-36.214v7.68zM551.384 503.49h36.216c37.65 0 73.4 14.358 100.41 39.88l53.32-31.326v-37.388c0-52.368-42.606-94.972-94.972-94.972s-94.972 42.606-94.972 94.972v28.834zM677.688 343.394l-31.63-84.588-31.688 84.74c10.26-2.504 20.966-3.862 31.986-3.862 10.788 0 21.27 1.308 31.332 3.71zM452 166c11.044 0 20 8.956 20 20v111.246c6.17 3.252 12.748 5.664 19.64 7.176l87.48 19.192 48.206-128.914c2.922-7.814 10.388-12.994 18.732-12.994s15.81 5.18 18.732 12.996l48.208 128.922 88.022-19.246c7.726-1.688 15.058-4.548 21.804-8.376h-74.824c-11.044 0-20-8.956-20-20v-220h-297.642v110h21.642zM390.358 166v-110h-30.358v10c0 34.188-27.812 62-62 62h-2v38h94.358zM216 306c0 11.028 8.972 20 20 20s20-8.972 20-20v-178h-40v178zM152 66c0 12.13 9.87 22 22 22h124c12.13 0 22-9.87 22-22v-10h-168v10zM984-24h-944v40h944v-40zM221.86 520.14c-3.72-3.72-5.86-8.88-5.86-14.14s2.138-10.42 5.86-14.138c3.72-3.72 8.88-5.862 14.14-5.862s10.42 2.14 14.138 5.862c3.722 3.718 5.862 8.878 5.862 14.138s-2.14 10.42-5.862 14.14c-3.718 3.72-8.878 5.86-14.138 5.86s-10.42-2.138-14.14-5.86z" />
</font>
</defs>
</svg>
